Patient4_TMGait_0pt4_02_left_39_EMG.mot
version=1
nRows=16
nColumns=33
inDegrees=no
endheader
time	1LAddLong	2LGlutMax	3LGlutMed	4LIliopsoas	5LSemiMemb	6LBicFemLong	7LRecFem	8LVastMed	9LVastLat	10LGasMed	11LTibAnt	12lTibPost	13LPeroneusLong	14LSol	15LExtDigLong	16LFlexDigLong	17RAddLong	18RGlutMax	19RGlutMed	20RIliopsoas	21RSemiMemb	22RBicFemLong	23RRecFem	24RVastMed	25RVastLat	26RGasMed	27RTibAnt	28RTibPost	29RPeroneusLong	30RSol	31RExtDigLong	32RFlexDigLong
53.455	0.018005	0.061798	-0.032349	0.006866	0.004883	0.011139	-0.022888	0.003204	0.13336	-0.017853	-0.024719	-0.006866	0.01297	-0.074921	-0.4982	0.011292	-0.001526	-0.17502	-0.23086	-0.13534	-0.002594	0.07431	0.11688	-0.003662	0.012054	-0.010834	0.25604	-0.010071	-0.5603	0.10468	-0.000763	-0.017548
53.456	0.023804	0.090179	-0.051727	0.003967	0.003052	0.010223	-0.032959	0.002747	0.11581	0.003204	-0.032196	-0.011749	-0.040131	-0.078278	-0.29862	0.012665	-0.000153	-0.12711	-0.61508	-0.021515	-0.002747	0.065155	0.12802	-0.002441	0.00824	-0.009308	0.040894	-0.004425	-0.18188	0.023346	-0.001373	-0.0177
53.457	0.01709	0.10803	-0.018005	0.002747	-0.018158	0.001526	-0.019531	0.007629	0.099945	-0.01297	-0.009918	-0.005493	-0.051575	-0.084381	-0.20523	0.003357	0.001373	-0.022125	0.20081	0.035858	0.000458	0.07843	0.13153	-0.026855	-0.002747	-0.009613	0.019073	-0.007019	0.25467	-0.007019	0	-0.012512
53.458	0.015564	0.049591	-0.044556	0.005646	-0.00885	0.005493	-0.023041	0.011749	0.090332	-0.026245	-0.015717	-0.012817	-0.061798	-0.093689	-0.084686	-0.003052	0.000458	-0.063782	-0.12161	0.080719	-0.001984	0.072327	0.098724	-0.042419	-0.043945	-0.019226	0.07431	-0.002441	-0.68695	0.040283	0.003662	-0.019226
53.459	0.007629	0.017242	-0.058136	0.004272	-0.000458	0.033569	-0.018311	0.004272	0.076141	-0.043945	-0.020447	-0.007477	-0.070343	-0.092773	-0.019684	0.014343	0.000153	-0.11688	-0.009308	0.083771	0.010681	0.10773	0.081329	-0.041504	-0.017548	-0.021057	0.10498	-0.007935	-0.3746	0.1355	0.000153	-0.019836
53.46	0.00473	0.019531	-0.048065	0.000763	0.005341	0.034943	-0.015869	0.012665	0.070343	-0.042419	-0.10117	-0.007477	-0.040588	-0.081482	0.011292	0.006714	-0.002289	-0.040283	0.33936	0.064545	0.006866	0.090332	0.055389	-0.094452	0.000763	-0.023346	0.075073	-0.002136	0.39108	0.01709	0.00061	-0.020905
53.461	0.004272	0.03891	-0.055389	0.003204	0.005188	0.011749	-0.037231	0.011139	0.072632	-0.066681	-0.059814	-0.015106	-0.039063	-0.082092	0.034943	0.018158	0.005646	0.019073	0.71472	0.079346	-0.000458	0.072784	-0.068817	-0.12878	-0.016022	0.000916	0.12375	-0.001831	0.97321	-0.064392	0.000305	-0.012817
53.462	0.003052	0.027924	-0.087585	-0.014954	-0.013885	-0.027466	-0.015869	0.005188	0.067596	-0.070953	-0.014343	-0.013275	-0.036469	-0.075226	0.090637	0.025177	0.000916	-0.007172	0.35736	0.027313	-0.001068	0.072632	-0.16434	-0.075226	-0.016327	0.031281	0.12543	-0.003967	0.58502	-0.06897	-0.00412	-0.006104
53.463	0.019531	0.00824	-0.10178	-0.010223	0.010071	-0.005035	-0.016632	0.001526	0.058594	-0.058441	0.071106	0.002594	0.014648	-0.07782	0.064087	0.018463	0.002441	-0.037842	0.12619	0.045319	-0.012665	0.067444	-0.14526	-0.023651	0.043335	0.015259	0.001984	-0.007629	1.375	-0.082245	0	-0.006561
53.464	0.006256	-0.011749	-0.022125	0.020599	0.022736	0.060883	-0.019836	0.003967	0.06012	-0.048828	0.046997	-0.00824	0.024414	-0.055237	0.083313	0.022125	0.006866	0.014038	0.62912	0.072632	0.002441	0.040588	-0.078583	-0.041351	0.10468	0.010529	-0.057068	0.000763	0.8139	-0.12695	0.000458	-0.005341
53.465	0.008392	0.033112	-0.062408	0.03479	0.009918	0.11795	-0.001984	0.006714	0.041809	-0.035095	0.031586	-0.010986	-0.005798	-0.065308	0.096893	0.019226	0.010376	0.15457	0.2179	0.050812	-0.006104	0.046387	-0.19348	0.033417	0.16327	0.00351	0.017395	0.001678	-1.1905	-0.15793	-0.003357	-0.000763
53.466	0.000763	0.000305	-0.15991	0.013275	-0.026093	0.13275	-0.003052	0.01358	0.050812	-0.007019	0.061951	-0.00351	-0.029449	-0.084076	0.048523	0.014801	0.010223	0.1355	-0.50064	0.020752	-0.006866	0.035858	-0.18219	0.071106	0.19882	-0.010681	0.009155	-0.007172	-0.061798	0.080566	0.001831	-0.009613
53.467	0.002747	-0.039673	-0.25528	-0.008545	-0.10681	0.088959	-0.000305	0.01709	0.055084	-0.029297	0.025482	-0.014801	-0.036926	-0.06958	0.02655	0.00885	0.017395	0.099945	-0.24704	-0.019073	-0.028381	0.040588	-0.03418	0.099487	0.13855	-0.013275	-0.09079	-0.007019	0.41489	0.17197	0.001526	-0.015106
53.468	-0.003204	-0.06134	-0.19226	0	-0.077209	0.02121	-0.001373	0.019073	0.048828	-0.015411	0.029449	-0.006104	-0.017853	-0.043182	0.022125	0.007324	0.005493	0.093536	-0.080109	-0.028076	0.009003	0.042419	0.03006	0.079193	0.088654	-0.012054	-0.098267	-0.008392	0.12161	0.058594	-0.004883	-0.011749
53.469	0.005646	-0.037079	-0.060577	0.00351	0.024567	-0.03952	-0.010681	0.007172	0.04837	-0.033417	0.040588	-0.011292	-0.022278	-0.046844	0.036621	0.013733	-0.011749	0.12787	-0.75348	-0.008392	0.010834	0.03418	0.062866	0.07019	0.028381	-0.006714	0.13351	-0.002747	-0.36346	0.01297	-0.000458	0.002747
53.47	0.025635	-0.046539	0.16403	0.002441	0.033417	-0.04364	-0.026398	0.00412	0.040741	-0.06073	0.025635	-0.010223	-0.023651	-0.075226	0.033264	0.002899	-0.003967	0.086517	-1.1099	0.059204	-0.020142	0.032349	0.0383	-0.012665	-0.011597	-0.001221	0.16296	-0.003357	-0.38513	-0.07782	-0.000153	-0.003052
